<svg xmlns="http://www.w3.org/2000/svg" width="27.16" height="190.75" viewBox="0 0 27.16 190.75">
  <defs>
    <style>
      .cls-1 {
        fill-rule: evenodd;
        opacity: 0.5;
      }
    </style>
  </defs>
  <path id="arrows_copy_2" data-name="arrows copy 2" class="cls-1" d="M1463.75,893.936a2.311,2.311,0,1,0,2.32,2.31A2.315,2.315,0,0,0,1463.75,893.936Zm0,3.331a1.021,1.021,0,1,1,1.03-1.021A1.023,1.023,0,0,1,1463.75,897.267Zm8.12-3.331a2.311,2.311,0,1,0,2.31,2.31A2.309,2.309,0,0,0,1471.87,893.936Zm0,3.331a1.021,1.021,0,1,1,1.02-1.021A1.023,1.023,0,0,1,1471.87,897.267Zm0.57-15.494h-9.26a0.645,0.645,0,0,0,0,1.29h9.26A0.645,0.645,0,1,0,1472.44,881.773Zm-0.5,3.349h-8.25a0.645,0.645,0,1,0,0,1.29h8.25A0.645,0.645,0,0,0,1471.94,885.122Zm6.8-6.223a1.29,1.29,0,0,0-1-.475h-20.12l-0.41-1.969a1.269,1.269,0,0,0-.75-0.923l-2.84-1.229a0.645,0.645,0,1,0-.51,1.184l2.84,1.228,3.12,15.149a1.3,1.3,0,0,0,1.27,1.03h15.47a0.645,0.645,0,1,0,0-1.29h-15.47l-0.38-1.843h15.97a1.307,1.307,0,0,0,1.27-1.03l1.8-8.757A1.266,1.266,0,0,0,1478.74,878.9Zm-2.81,9.572h-16.24l-1.81-8.757h19.86Zm-1.03-64.854-14.07-.009c-0.04,0-.12-0.008-0.21-0.008a2.488,2.488,0,0,0-2.56,2.746v24.478h19.19v-24.48A2.824,2.824,0,0,0,1474.9,823.617Zm1.07,25.838h-16.62V826.344a1.187,1.187,0,0,1,1.27-1.378c0.06,0,.1,0,0.11,0l13.99,0a1.5,1.5,0,0,1,1.25,1.369v23.112h0Zm-15.13-15.208h6.04v1.71h-6.04v-1.71Zm7.58,0h6.05v1.71h-6.05v-1.71Zm-7.51,3.193h2.43v2.627h-2.43V837.44Zm3.6,0h2.43v2.627h-2.43V837.44Zm3.72,0h2.44v2.627h-2.44V837.44Zm3.82,0h2.43v2.627h-2.43V837.44Zm-11.14,3.692h2.44v2.628h-2.44v-2.628Zm3.6,0h2.43v2.628h-2.43v-2.628Zm3.65,0h2.44v2.628h-2.44v-2.628Zm3.82,0h2.43v2.628h-2.43v-2.628Zm-11.15,3.693h2.43v2.625h-2.43v-2.625Zm3.6,0h2.43v2.625h-2.43v-2.625Zm3.8,0h2.44v2.625h-2.44v-2.625Zm3.75,0h2.43v2.625h-2.43v-2.625Zm2.49-17.566h-13.64v5.048h13.64v-5.048Zm-6.22,3.846h-0.69v-1.439h-0.55v-0.518a1.119,1.119,0,0,0,.25-0.022,0.815,0.815,0,0,0,.22-0.09,0.429,0.429,0,0,0,.15-0.169,0.437,0.437,0,0,0,.07-0.26h0.55v2.5Zm2.73,0h-2.01a0.753,0.753,0,0,1,.04-0.338,0.732,0.732,0,0,1,.13-0.28,1.558,1.558,0,0,1,.16-0.2,1.963,1.963,0,0,1,.21-0.172,2.279,2.279,0,0,1,.22-0.157c0.08-.051.15-0.1,0.23-0.145a0.621,0.621,0,0,1,.1-0.065,0.986,0.986,0,0,0,.1-0.079,0.459,0.459,0,0,0,.08-0.1,0.256,0.256,0,0,0,.03-0.122,0.313,0.313,0,0,0-.08-0.24,0.3,0.3,0,0,0-.2-0.065,0.311,0.311,0,0,0-.28.141,0.8,0.8,0,0,0-.07.37h-0.62a1.132,1.132,0,0,1,.05-0.459,0.787,0.787,0,0,1,.19-0.338,0.773,0.773,0,0,1,.32-0.211,1.126,1.126,0,0,1,.42-0.072,1.305,1.305,0,0,1,.38.05,0.822,0.822,0,0,1,.3.144,0.642,0.642,0,0,1,.19.247,0.774,0.774,0,0,1,.07.348,0.735,0.735,0,0,1-.1.4,0.976,0.976,0,0,1-.24.289,2.176,2.176,0,0,1-.33.225,3.6,3.6,0,0,0-.34.208v0h1.04v0.611h0.01Zm2.17-.506a0.659,0.659,0,0,1-.16.256,0.8,0.8,0,0,1-.3.2,1.165,1.165,0,0,1-.47.082,1.453,1.453,0,0,1-.44-0.058,1.107,1.107,0,0,1-.3-0.153,0.755,0.755,0,0,1-.17-0.208,1.063,1.063,0,0,1-.09-0.223,0.758,0.758,0,0,1-.03-0.2v-0.138h0.63a0.429,0.429,0,0,0,.09.3,0.245,0.245,0,0,0,.12.086,0.455,0.455,0,0,0,.16.025,0.392,0.392,0,0,0,.23-0.062,0.273,0.273,0,0,0,.08-0.218,0.267,0.267,0,0,0-.03-0.135,0.2,0.2,0,0,0-.06-0.076,0.349,0.349,0,0,0-.11-0.04,1.087,1.087,0,0,0-.11-0.008,0.51,0.51,0,0,0-.11.006,0.5,0.5,0,0,0-.08.011v-0.486l0.08,0.008c0.03,0,.07.006,0.11,0.006s0.07,0,.11-0.006a0.274,0.274,0,0,0,.1-0.033,0.253,0.253,0,0,0,.08-0.069,0.21,0.21,0,0,0,.03-0.117,0.174,0.174,0,0,0-.03-0.1,0.207,0.207,0,0,0-.07-0.068,0.277,0.277,0,0,0-.1-0.037,0.459,0.459,0,0,0-.11-0.013,0.387,0.387,0,0,0-.12.02,0.342,0.342,0,0,0-.11.059,0.377,0.377,0,0,0-.09.235h-0.62a0.916,0.916,0,0,1,.08-0.386,0.722,0.722,0,0,1,.21-0.268,1,1,0,0,1,.3-0.157,1.317,1.317,0,0,1,.38-0.053,1.127,1.127,0,0,1,.42.07,1.16,1.16,0,0,1,.28.17,0.778,0.778,0,0,1,.14.212,0.557,0.557,0,0,1,.05.191,0.79,0.79,0,0,1-.05.3,0.409,0.409,0,0,1-.1.157,0.289,0.289,0,0,1-.11.06,0.256,0.256,0,0,0-.05.015v0a0.053,0.053,0,0,0,.03.014,0.386,0.386,0,0,1,.07.027,0.484,0.484,0,0,1,.09.055,0.209,0.209,0,0,1,.09.1,0.358,0.358,0,0,1,.07.159,0.769,0.769,0,0,1,.03.234A0.789,0.789,0,0,1,1473.15,830.6Zm2.46-36.622-2.72-.533a2.3,2.3,0,0,1-.87-0.356,0.7,0.7,0,0,0-.06-0.04,1.542,1.542,0,0,1-.68-1.228v-1.129a5.88,5.88,0,0,0,1.04-1.027,2.465,2.465,0,0,0,2.41-2.375,1.586,1.586,0,0,0,1.08-1.508v-2.987a1.592,1.592,0,0,0-1.03-1.486,0.578,0.578,0,0,0,.35-0.7,10.34,10.34,0,0,0-2.67-4.887,7.087,7.087,0,0,0-4.61-2.173,7.468,7.468,0,0,0-4.85,1.767,8.2,8.2,0,0,0-1.67,2.016v0.008s-0.01,0-.01,0h0a7.1,7.1,0,0,0-.92,2.3,7.32,7.32,0,0,0-.14,1.684,1.591,1.591,0,0,0-.97,1.464v2.987a1.59,1.59,0,0,0,1.59,1.591h0.77a6.116,6.116,0,0,0,2.38,3.475v0.973a1.53,1.53,0,0,1-.67,1.228,0.7,0.7,0,0,0-.06.04,2.366,2.366,0,0,1-.87.356l-2.72.533a4.9,4.9,0,0,0-4.27,4.587v2.921a0.584,0.584,0,0,0,.58.586h23.27a0.586,0.586,0,0,0,.59-0.586v-2.921A4.909,4.909,0,0,0,1475.61,793.977Zm-2.37-5.928a5.245,5.245,0,0,0,.22-0.677h0.09A1.362,1.362,0,0,1,1473.24,788.049Zm1.4-5.255v2.987a0.413,0.413,0,0,1-.41.42h-0.59v-3.827h0.59A0.413,0.413,0,0,1,1474.64,782.794Zm-10.88-6.584a6.39,6.39,0,0,1,4.03-1.49,5.967,5.967,0,0,1,3.86,1.845,9.3,9.3,0,0,1,2.35,4.352,0.684,0.684,0,0,0,.18.287h-0.56a0.588,0.588,0,0,0-.56-0.419,0.606,0.606,0,0,0-.32.093v0a6.872,6.872,0,0,1-2.91.664,8.638,8.638,0,0,1-5.41-1.964l-1.86-2A6.736,6.736,0,0,1,1463.76,776.21Zm-2.3,9.666V786.2h-0.58a0.421,0.421,0,0,1-.42-0.42v-2.987a0.421,0.421,0,0,1,.42-0.419h0.58v3.5Zm0.45-5.075a0.591,0.591,0,0,0-.2.094l-0.28.114a5.338,5.338,0,0,1,.12-1.126,5.778,5.778,0,0,1,.37-1.15,11.691,11.691,0,0,0,1.21,1.288,6.3,6.3,0,0,1-.97.656C1462.08,780.72,1462,780.761,1461.91,780.8Zm0.72,5.075V781.75a0.49,0.49,0,0,0,.08-0.042,7.725,7.725,0,0,0,1.34-.932,9.753,9.753,0,0,0,5.78,1.94,9.34,9.34,0,0,0,2.64-.441v3.6a4.877,4.877,0,0,1-.75,2.618h-3.6a0.585,0.585,0,0,0,0,1.17h2.57a4.876,4.876,0,0,1-3.14,1.137A4.93,4.93,0,0,1,1462.63,785.876Zm16.08,15.024h-3.24v-1a0.584,0.584,0,0,0-.58-0.586,0.592,0.592,0,0,0-.59.586v1h-13.28v-1a0.585,0.585,0,1,0-1.17,0v1h-3.24v-2.336a3.761,3.761,0,0,1,3.32-3.439l2.72-.532a3.605,3.605,0,0,0,.95-0.328,6.954,6.954,0,0,0,1.13.7,0.585,0.585,0,0,0,.51-1.052,6.158,6.158,0,0,1-.68-0.4,2.581,2.581,0,0,0,.64-1.7V791.5a6.1,6.1,0,0,0,2.35.471,6.042,6.042,0,0,0,2.56-.566v0.414a2.627,2.627,0,0,0,.64,1.694,5.506,5.506,0,0,1-3.76.914,0.586,0.586,0,1,0-.15,1.162,7.048,7.048,0,0,0,.82.049,6.659,6.659,0,0,0,4.05-1.374,3.588,3.588,0,0,0,.96.328l2.71,0.532a3.762,3.762,0,0,1,3.33,3.439V800.9h0Zm-11.15-12.46a2.8,2.8,0,0,0,1.97-.814,0.552,0.552,0,0,0,0-.772,0.542,0.542,0,0,0-.77,0,1.692,1.692,0,0,1-2.39,0,0.549,0.549,0,0,0-.78.772A2.8,2.8,0,0,0,1467.56,788.44Zm-2.19-5.466a0.547,0.547,0,1,1-.55.546A0.551,0.551,0,0,1,1465.37,782.974Zm4.15,0a0.547,0.547,0,1,1-.55.546A0.551,0.551,0,0,1,1469.52,782.974Zm-0.9,172.051,7.77,7.776a0.876,0.876,0,0,1,0,1.236,0.866,0.866,0,0,1-1.23,0l-7.15-7.159-7.15,7.158a0.878,0.878,0,0,1-1.24,0,0.894,0.894,0,0,1,0-1.235l7.77-7.777A0.875,0.875,0,0,1,1468.62,955.025Z" transform="translate(-1452.72 -773.563)"/>
</svg>
