<svg xmlns="http://www.w3.org/2000/svg" width="27.219" height="27.22" viewBox="0 0 27.219 27.22">
  <defs>
    <style>
      .cls-1 {
        fill-rule: evenodd;
        opacity: 0.5;
      }
    </style>
  </defs>
  <path class="cls-1" d="M512.787,1722.58a1.906,1.906,0,0,0-2.885,0c-0.674.66-1.348,1.33-2.012,2.01a0.4,0.4,0,0,1-.555.11c-0.436-.24-0.9-0.44-1.321-0.7a20.9,20.9,0,0,1-5.043-4.59,11.941,11.941,0,0,1-1.808-2.89,0.408,0.408,0,0,1,.1-0.53c0.674-.66,1.332-1.32,2-1.99a1.914,1.914,0,0,0-.006-2.95c-0.527-.54-1.054-1.06-1.581-1.59-0.544-.54-1.082-1.09-1.632-1.63a1.921,1.921,0,0,0-2.885,0c-0.68.67-1.331,1.36-2.023,2.01a3.3,3.3,0,0,0-1.031,2.22,9.4,9.4,0,0,0,.725,4.04,24.547,24.547,0,0,0,4.358,7.26,26.81,26.81,0,0,0,8.931,6.98,12.8,12.8,0,0,0,4.948,1.44,3.606,3.606,0,0,0,3.111-1.18c0.578-.65,1.23-1.24,1.842-1.85a1.933,1.933,0,0,0,.011-2.94Q514.414,1724.19,512.787,1722.58Zm-1.083-4.52,2.091-.36a9.392,9.392,0,0,0-7.939-7.7l-0.3,2.11A7.235,7.235,0,0,1,511.7,1718.06Zm3.27-9.09a15.441,15.441,0,0,0-8.84-4.41l-0.3,2.11a13.432,13.432,0,0,1,11.385,11.03l2.091-.36A15.557,15.557,0,0,0,514.974,1708.97Z" transform="translate(-492.094 -1704.56)"/>
</svg>
