<svg version="1.1" xmlns="http://www.w3.org/2000/svg" width="24" height="24"  viewBox="0 0 94 100" style="enable-background:new 0 0 94 100;" xml:space="preserve">
	<path fill="#d5d5d5" d="M47.2,3.6C21.5,3.6,0.6,24.4,0.6,50.2s20.9,46.7,46.7,46.7S93.9,76,93.9,50.2S73,3.6,47.2,3.6z M69.8,54.4
		c0.4,0.5,1.3,1.4,2.7,2.8h0l0,0l0,0l0.1,0.1c3.2,3,5.3,5.4,6.5,7.5c0.1,0.1,0.1,0.3,0.2,0.4c0.1,0.2,0.2,0.5,0.2,0.9
		c0.1,0.4,0.1,0.8,0,1.2c-0.1,0.3-0.4,0.6-0.8,0.9c-0.5,0.3-1.1,0.4-2,0.4l-8.7,0.1c-0.5,0.1-1.2,0.1-1.9-0.2
		c-0.7-0.2-1.3-0.5-1.8-0.7l-0.7-0.4c-0.7-0.5-1.5-1.2-2.4-2.2c-0.9-1-1.7-1.8-2.3-2.6c-0.6-0.8-1.3-1.4-2.1-2
		c-0.7-0.5-1.4-0.7-1.9-0.5c-0.1,0-0.2,0.1-0.3,0.1c-0.1,0.1-0.3,0.2-0.6,0.5c-0.3,0.3-0.5,0.6-0.7,1c-0.2,0.4-0.4,1-0.6,1.8
		c-0.2,0.8-0.2,1.7-0.2,2.6c0,0.3,0,0.6-0.1,0.9c-0.1,0.3-0.2,0.5-0.3,0.6l-0.1,0.2c-0.4,0.4-1,0.7-1.8,0.7h-3.9
		c-1.6,0.1-3.2-0.1-4.9-0.6c-1.7-0.5-3.2-1.1-4.5-1.8c-1.3-0.7-2.4-1.5-3.5-2.2c-1-0.8-1.8-1.4-2.4-1.9l-0.8-0.8
		c-0.2-0.2-0.5-0.6-0.9-1c-0.4-0.5-1.2-1.5-2.4-3.1c-1.2-1.6-2.4-3.3-3.6-5.1c-1.2-1.8-2.6-4.2-4.1-7.1c-1.6-3-3.1-6-4.4-9.2
		c-0.1-0.4-0.2-0.7-0.2-0.9c0-0.2,0-0.4,0.1-0.5L15,34c0.3-0.4,1-0.6,1.9-0.6l9.3-0.1c0.3,0,0.5,0.1,0.8,0.2
		c0.2,0.1,0.4,0.2,0.5,0.3l0.2,0.1c0.4,0.2,0.6,0.6,0.8,1.1c0.5,1.1,1,2.3,1.6,3.5c0.6,1.2,1,2.1,1.4,2.8l0.5,1
		c0.7,1.4,1.3,2.5,1.9,3.5c0.6,1,1.2,1.8,1.6,2.3c0.5,0.6,1,1,1.4,1.3c0.5,0.3,0.8,0.5,1.2,0.5c0.3,0,0.6-0.1,0.9-0.2
		c0,0,0.1-0.1,0.2-0.2c0.1-0.1,0.2-0.3,0.4-0.7c0.2-0.4,0.4-0.9,0.5-1.6c0.1-0.7,0.2-1.6,0.3-2.7c0.1-1.2,0.1-2.6,0-4.2
		c0-0.9-0.1-1.7-0.3-2.5c-0.2-0.7-0.3-1.3-0.5-1.6l-0.2-0.4c-0.6-0.8-1.5-1.3-2.9-1.5c-0.3,0-0.2-0.3,0.2-0.8c0.4-0.4,0.8-0.8,1.3-1
		c1.2-0.6,3.9-0.9,8.1-0.8c1.9,0,3.4,0.2,4.6,0.4c0.5,0.1,0.8,0.3,1.1,0.5c0.3,0.2,0.5,0.5,0.7,0.8c0.2,0.4,0.3,0.7,0.4,1.1
		c0.1,0.4,0.1,0.9,0.1,1.5s0,1.3,0,1.9c0,0.6-0.1,1.4-0.1,2.4c0,1-0.1,1.9-0.1,2.8c0,0.2,0,0.7,0,1.4c0,0.7,0,1.2,0,1.6
		c0,0.4,0.1,0.8,0.1,1.4c0.1,0.5,0.2,1,0.4,1.3c0.2,0.3,0.4,0.6,0.8,0.8c0.2,0,0.4,0.1,0.6,0.1c0.2,0,0.5-0.1,0.9-0.4
		c0.4-0.3,0.8-0.7,1.3-1.2c0.5-0.5,1.1-1.2,1.8-2.3c0.7-1,1.5-2.2,2.3-3.6c1.4-2.3,2.6-4.9,3.6-7.6c0.1-0.2,0.2-0.4,0.3-0.6
		c0.1-0.2,0.3-0.3,0.4-0.4l0.1-0.1l0.2-0.1c0,0,0.1,0,0.4-0.1c0.3-0.1,0.5-0.1,0.7,0l9.7-0.1c0.9-0.1,1.6-0.1,2.2,0.1
		c0.6,0.2,0.9,0.4,1,0.6l0.2,0.3c0.5,1.4-1.2,4.8-5.1,9.9C74,45,73.3,46,72.4,47.2c-1.8,2.3-2.8,3.7-3,4.4
		C69,52.5,69.1,53.5,69.8,54.4z"/>
</svg>
